<svg width="42" height="41" viewBox="0 0 42 41" fill="none" xmlns="http://www.w3.org/2000/svg">
<path opacity="0.24" d="M9.793 31.1251C6.507 27.8981 4.497 23.7151 4.031 19.2031C2.28058 21.4093 1.33203 24.1449 1.341 26.9611C1.34507 28.8107 1.75756 30.6365 2.549 32.3081L0.923004 37.0401C0.785251 37.4355 0.762202 37.8617 0.856521 38.2696C0.950841 38.6775 1.15868 39.0504 1.456 39.3451C1.75065 39.6423 2.12335 39.85 2.53104 39.9443C2.93874 40.0386 3.3648 40.0157 3.76 39.8781L8.492 38.2521C10.153 39.0401 11.991 39.4571 13.839 39.4601C16.737 39.4631 19.495 38.4801 21.726 36.6681C17.24 36.2621 13.056 34.3301 9.793 31.1251Z" fill="black"/>
<path d="M41.292 31.5762L38.932 24.7072C40.0736 22.3662 40.6692 19.7967 40.674 17.1922C40.681 12.6672 38.931 8.38921 35.744 5.14521C32.558 1.90021 28.311 0.074213 23.787 0.00221303C19.096 -0.071787 14.687 1.71221 11.371 5.02721C9.73787 6.64979 8.45059 8.58658 7.58691 10.7206C6.72324 12.8546 6.3011 15.1415 6.346 17.4432C6.418 21.9672 8.244 26.2142 11.488 29.4012C14.726 32.5812 18.994 34.3312 23.509 34.3312H23.536C26.1406 34.3261 28.7101 33.7301 31.051 32.5882L37.92 34.9482C38.3898 35.1119 38.8962 35.1393 39.3809 35.0273C39.8656 34.9153 40.3087 34.6684 40.659 34.3152C41.0122 33.9649 41.2591 33.5218 41.3711 33.0371C41.4831 32.5525 41.4557 32.046 41.292 31.5762ZM25.167 23.1222H16.304C16.1422 23.1269 15.9812 23.099 15.8304 23.0403C15.6796 22.9816 15.5421 22.8933 15.426 22.7805C15.3099 22.6678 15.2177 22.5328 15.1547 22.3838C15.0917 22.2347 15.0592 22.0745 15.0592 21.9127C15.0592 21.7509 15.0917 21.5907 15.1547 21.4416C15.2177 21.2926 15.3099 21.1577 15.426 21.0449C15.5421 20.9321 15.6796 20.8438 15.8304 20.7851C15.9812 20.7264 16.1422 20.6986 16.304 20.7032H25.167C25.4818 20.7123 25.7806 20.8437 26 21.0695C26.2195 21.2953 26.3422 21.5978 26.3422 21.9127C26.3422 22.2276 26.2195 22.5301 26 22.7559C25.7806 22.9818 25.4818 23.1132 25.167 23.1222ZM30.714 18.1482H16.304C15.9892 18.1392 15.6904 18.0078 15.471 17.7819C15.2515 17.5561 15.1288 17.2536 15.1288 16.9387C15.1288 16.6238 15.2515 16.3213 15.471 16.0955C15.6904 15.8697 15.9892 15.7383 16.304 15.7292H30.714C31.0288 15.7383 31.3276 15.8697 31.547 16.0955C31.7665 16.3213 31.8892 16.6238 31.8892 16.9387C31.8892 17.2536 31.7665 17.5561 31.547 17.7819C31.3276 18.0078 31.0288 18.1392 30.714 18.1482ZM30.714 13.1742H16.304C15.9831 13.1742 15.6753 13.0467 15.4484 12.8198C15.2215 12.5929 15.094 12.2851 15.094 11.9642C15.094 11.6433 15.2215 11.3355 15.4484 11.1086C15.6753 10.8817 15.9831 10.7542 16.304 10.7542H30.714C31.0349 10.7542 31.3427 10.8817 31.5696 11.1086C31.7965 11.3355 31.924 11.6433 31.924 11.9642C31.924 12.2851 31.7965 12.5929 31.5696 12.8198C31.3427 13.0467 31.0349 13.1742 30.714 13.1742Z" fill="black"/>
</svg>
