<svg width="28" height="28" viewBox="0 0 28 28" fill="none" xmlns="http://www.w3.org/2000/svg">
<path d="M24.16 14.0002C24.16 13.3532 24.685 12.8282 25.333 12.8282H27.8C27.236 6.12419 21.876 0.764195 15.172 0.200195V2.6672C15.172 2.97803 15.0485 3.27613 14.8287 3.49592C14.6089 3.71572 14.3108 3.8392 14 3.8392C13.6892 3.8392 13.3911 3.71572 13.1713 3.49592C12.9515 3.27613 12.828 2.97803 12.828 2.6672V0.200195C6.124 0.764195 0.763997 6.12419 0.199997 12.8282H2.667C2.97783 12.8282 3.27593 12.9517 3.49573 13.1715C3.71552 13.3913 3.839 13.6894 3.839 14.0002C3.839 14.311 3.71552 14.6091 3.49573 14.8289C3.27593 15.0487 2.97783 15.1722 2.667 15.1722H0.199997C0.763997 21.8762 6.124 27.2362 12.828 27.8002V25.3332C12.828 25.0224 12.9515 24.7243 13.1713 24.5045C13.3911 24.2847 13.6892 24.1612 14 24.1612C14.3108 24.1612 14.6089 24.2847 14.8287 24.5045C15.0485 24.7243 15.172 25.0224 15.172 25.3332V27.8002C21.876 27.2362 27.236 21.8762 27.8 15.1722H25.333C25.179 15.1723 25.0265 15.1421 24.8842 15.0833C24.7419 15.0244 24.6126 14.9381 24.5036 14.8293C24.3947 14.7204 24.3083 14.5912 24.2493 14.4489C24.1903 14.3067 24.16 14.1542 24.16 14.0002ZM21.077 8.40419L14.84 14.8172C14.6308 15.0321 14.3471 15.1586 14.0475 15.1707C13.7478 15.1828 13.4548 15.0796 13.229 14.8822L8.573 10.8122C8.45434 10.7118 8.35685 10.5887 8.2862 10.4503C8.21555 10.3118 8.17316 10.1606 8.16149 10.0056C8.14981 9.85061 8.1691 9.69482 8.21821 9.54733C8.26733 9.39984 8.34529 9.2636 8.44757 9.14653C8.54985 9.02946 8.67439 8.93391 8.81395 8.86544C8.95352 8.79696 9.10531 8.75694 9.26048 8.7477C9.41566 8.73845 9.57113 8.76017 9.71783 8.81159C9.86454 8.86301 9.99954 8.9431 10.115 9.0472L13.935 12.3872L19.397 6.7702C19.6152 6.55424 19.9094 6.4325 20.2163 6.43116C20.5233 6.42981 20.8186 6.54896 21.0386 6.76299C21.2587 6.97703 21.386 7.26886 21.3932 7.57576C21.4003 7.88265 21.2868 8.18011 21.077 8.40419Z" fill="black"/>
</svg>
