<svg width="234" height="32" viewBox="0 0 234 32" fill="none" xmlns="http://www.w3.org/2000/svg">
<g clip-path="url(#clip0_602_2)">
<path d="M65.4399 0H43.626V10.6693H65.4399V0Z" fill="black"/>
<path d="M0 0V10.6693H10.907V32H21.8139V10.6693H32.7209V0H0Z" fill="black"/>
<path d="M32.7214 31.999H43.6284H65.4504V21.3297H43.6284V10.6682H32.7214V31.999Z" fill="black"/>
<path d="M93.2518 8.06616H77.2236V12.4955H82.588V26.4207H87.8875V12.4955H93.2518V8.06616Z" fill="black"/>
<path d="M99.2982 12.3633C95.5221 12.3633 92.7346 14.8033 92.7346 19.5512C92.7346 23.7708 95.1089 26.7081 99.4279 26.7081C101.493 26.7184 103.521 26.1805 105.287 25.154L103.398 22.1389C102.264 22.763 100.979 23.0924 99.671 23.0947C99.3572 23.1151 99.0424 23.073 98.7465 22.971C98.4505 22.8689 98.1798 22.7092 97.9514 22.5019C97.7231 22.2945 97.5419 22.0441 97.4195 21.7663C97.297 21.4885 97.2359 21.1894 97.24 20.8878H105.667C105.667 20.6547 105.667 20.3672 105.667 19.9709C105.692 14.8577 103.228 12.3633 99.2982 12.3633ZM97.24 17.9505C97.4102 16.5906 98.0503 15.8524 99.1605 15.8524C100.603 15.8524 101.097 16.5595 101.348 17.9505H97.24Z" fill="black"/>
<path d="M115.016 22.8851C113.679 22.8851 112.99 21.7583 112.99 19.5825C112.99 17.4067 113.622 16.1944 114.878 16.1944C115.948 16.1944 116.409 16.7695 117.09 17.9817L120.485 15.5417C119.229 13.6068 117.665 12.3945 114.959 12.3945C110.364 12.3945 108.128 15.3086 108.128 19.5281C108.128 24.1905 110.64 26.7394 114.854 26.7394C117.398 26.7394 118.954 25.8224 120.623 23.4679L117.503 21.1366C116.604 22.3877 115.948 22.8851 115.016 22.8851Z" fill="black"/>
<path d="M131.969 12.3622C130.653 12.3361 129.373 12.7666 128.363 13.5745V7.30347L123.436 9.19176V26.4195H128.363V18.5555C128.363 16.8226 128.987 16.3486 130.032 16.3486C131.077 16.3486 131.652 16.8226 131.652 18.6099V26.4195H136.604V18.0038C136.62 14.3826 135.113 12.3622 131.969 12.3622Z" fill="black"/>
<path d="M148.492 22.28C146.19 22.28 145.25 20.0498 145.25 17.2445C145.25 14.4393 146.215 12.2091 148.427 12.2091C150.177 12.2091 150.858 13.2892 151.514 14.991L156.336 13.2115C155.023 9.75352 153.167 7.77197 148.459 7.77197C143.322 7.77197 139.708 11.3388 139.708 17.2368C139.708 22.6763 142.746 26.7015 148.435 26.7015C152.973 26.7015 155.104 24.3703 156.392 21.9614L151.903 19.6768C150.866 21.4174 150.161 22.28 148.492 22.28Z" fill="black"/>
<path d="M164.293 13.6521V12.6574H159.374V26.4194H164.293V18.9206C164.293 17.2421 165.03 16.6904 166.237 16.6904C166.689 16.712 167.131 16.8291 167.53 17.0333C167.929 17.2374 168.276 17.5237 168.547 17.8716L169.698 12.9682C168.998 12.5611 168.19 12.3586 167.372 12.3854C166.796 12.3861 166.226 12.4987 165.697 12.7164C165.168 12.9341 164.69 13.2524 164.293 13.6521Z" fill="black"/>
<path d="M180.264 20.5242C180.264 22.257 179.64 22.7311 178.643 22.7311C177.647 22.7311 177.023 22.257 177.023 20.4698V12.699H172.031V21.0759C172.031 24.6971 173.538 26.7097 176.683 26.7097C177.989 26.7387 179.262 26.3106 180.264 25.5052V26.4222H185.215V12.6602H180.264V20.5242Z" fill="black"/>
<path d="M197.33 12.3632C196.015 12.337 194.734 12.7675 193.724 13.5754V12.6585H188.805V26.4205H193.732V18.5565C193.732 16.8236 194.356 16.3496 195.393 16.3496C196.431 16.3496 197.014 16.8236 197.014 18.6109V26.4205H201.965V18.0048C201.981 14.3836 200.474 12.3632 197.33 12.3632Z" fill="black"/>
<path d="M211.771 22.8848C210.434 22.8848 209.745 21.7581 209.745 19.5822C209.745 17.4064 210.377 16.1942 211.633 16.1942C212.702 16.1942 213.164 16.7692 213.845 17.9815L217.24 15.5414C215.984 13.6065 214.42 12.3943 211.714 12.3943C207.119 12.3943 204.875 15.3083 204.875 19.5278C204.875 24.1903 207.395 26.7391 211.609 26.7391C214.153 26.7391 215.709 25.8222 217.378 23.4676L214.258 21.1364C213.359 22.3875 212.702 22.8848 211.771 22.8848Z" fill="black"/>
<path d="M228.723 12.3622C227.408 12.3361 226.128 12.7666 225.117 13.5745V7.30347L220.191 9.19176V26.4195H225.117V18.5555C225.117 16.8226 225.741 16.3486 226.787 16.3486C227.832 16.3486 228.407 16.8226 228.407 18.6099V26.4195H233.375V18.0038C233.375 14.3826 231.867 12.3622 228.723 12.3622Z" fill="black"/>
</g>
<defs>
<clipPath id="clip0_602_2">
<rect width="234" height="32" fill="white"/>
</clipPath>
</defs>
</svg>
