<svg width="229" height="31" viewBox="0 0 229 31" fill="none" xmlns="http://www.w3.org/2000/svg">
<g clip-path="url(#clip0_602_3)">
<path d="M7.46446 17.1243V9.1197L4.72273 10.1714C4.72273 10.1714 4.05253 11.5152 4.17438 13.5018C4.23531 15.0793 5.21015 16.8906 5.94128 17.7085L7.46446 17.1243ZM14.8367 0.647705C15.4459 0.706133 16.4817 0.99827 17.2128 1.58255C18.0049 2.28368 18.1877 3.3938 17.944 4.38707C17.7003 5.26348 17.3956 5.7309 16.4208 6.3736C15.4459 7.0163 14.7148 7.07473 14.7148 7.07473V10.9309L16.6036 12.3332L14.7148 13.9692V19.2277C14.7148 19.2277 16.2989 18.0007 17.5175 15.6052C17.5175 15.6052 17.5784 15.4883 17.7003 15.1962C17.8221 15.8389 17.7612 17.1827 16.9691 18.8187C16.3599 20.1041 15.3241 21.2726 13.9228 21.9738C11.5466 23.2007 9.71877 23.3176 7.83003 22.967C5.57571 22.558 3.50418 21.3895 2.16378 19.3445C1.18894 17.8838 0.762451 16.2479 0.762451 14.4366C0.823379 10.8725 3.68696 7.83429 6.97704 6.66574C7.40353 6.54888 7.52539 6.43203 8.07374 6.3736C7.83003 6.54888 7.52539 6.72417 7.15983 6.95788C6.12406 7.60058 5.21015 8.88599 4.78366 9.87925L11.1201 7.25001V15.4883L6.06313 17.8838C6.67241 18.6434 8.4393 19.7535 9.96248 19.9288C12.5214 20.2209 14.2274 19.2861 14.2274 19.2861V13.9108L12.3387 12.3332L14.2274 10.9309V7.07473C13.1307 6.95788 11.6075 6.49046 10.8764 6.31518C9.71878 6.08147 5.94128 5.0882 5.332 4.97134C4.72273 4.91291 3.9916 4.91291 3.56511 5.26348C3.13862 5.61404 2.83398 6.31518 3.01676 6.89945C3.13862 7.25002 3.38233 7.4253 3.56511 7.60058C3.56511 7.60058 3.3214 7.60058 2.95584 7.36687C2.22471 6.95788 1.67636 6.19832 1.61543 5.20505C1.57986 4.59362 1.70651 3.98352 1.98353 3.43176C2.26056 2.88 2.67893 2.40459 3.19955 2.04997C4.17438 1.46569 5.27108 1.11513 6.55055 1.29041C8.4393 1.52412 10.9373 2.51739 13.1916 3.04323C14.0446 3.21852 14.7148 3.27694 15.3241 2.98481C15.6287 2.80952 16.1161 2.28368 15.6897 1.64097C15.2022 0.881415 14.2883 0.881415 13.4963 0.76456C14.2274 0.647705 14.3493 0.647705 14.8367 0.647705Z" fill="black"/>
<path d="M39.6346 15.0192L36.7101 17.0057V10.4618L39.6346 15.0192ZM39.5127 8.70898L36.2836 10.5202L33.2372 12.0394V19.6349L32.0796 20.5113L32.2624 20.6866L33.42 19.8102L37.0147 22.79L43.2293 18.2327L43.1074 18.0574L39.6346 20.5698L36.7101 18.1742V17.2394L42.3763 13.3832L39.5127 8.70898Z" fill="black"/>
<path d="M23.1841 25.7693C23.9761 25.9446 25.4384 26.0615 27.2053 25.2435C29.1549 24.3671 29.8861 22.439 29.8861 20.5108L29.947 17.7648V11.6883L31.1655 10.8119L31.0437 10.6366L29.8251 11.513L27.2053 8.59164L23.1841 11.4546V1.75562L19.1019 4.96913C19.2847 5.08598 20.1986 5.20284 20.1986 6.02082V19.6344L18.0662 20.9198L18.188 21.0951L19.1019 20.4524L21.6609 22.6727L25.6821 19.6929L25.5602 19.5176L24.5854 20.2187L23.245 19.3423V11.7467L24.8291 10.8119L27.0225 12.9737V19.5176C27.0225 21.2704 26.5351 23.3154 25.5602 24.3671C24.5854 25.4188 24.2198 25.4772 23.1841 25.7693Z" fill="black"/>
<path d="M51.0907 25.0703C49.5066 24.895 48.8364 24.0186 48.8364 23.259C48.8364 22.7916 49.3238 21.9152 50.2987 21.7983C51.2735 21.6815 52.2484 22.0905 53.1013 23.0253L56.8179 19.2275L56.6351 19.0523L55.6603 20.104C54.6245 19.0523 53.406 18.3511 51.9437 18.1758V6.54877L61.3875 22.85C61.3875 22.85 61.6312 23.0253 62.0577 23.0253C62.4232 23.0253 62.3014 22.7916 62.3014 22.7916V6.37349C63.0934 6.37349 64.1292 5.96449 64.7385 5.38022C66.5663 3.62739 65.8351 1.69929 65.6524 1.46558C65.5305 2.28356 64.8603 3.15997 63.7027 3.15997C62.1795 3.15997 61.2656 2.10828 61.2656 2.10828L57.4272 6.08135L57.61 6.25663L58.6457 5.14651C59.9252 6.25663 60.6563 6.37349 61.6312 6.43191V15.9556L54.7464 3.8611C54.0762 2.86784 53.1013 1.99142 51.5781 1.99142C49.8113 1.99142 48.5318 3.45211 48.349 4.67909C48.1662 6.08135 48.349 6.43191 48.349 6.43191C48.349 6.43191 48.5927 4.85437 49.6285 4.85437C50.5424 4.85437 50.847 5.32179 51.2735 5.90607V9.76228C50.2987 9.82071 47.9834 9.93756 47.8007 12.3915C47.8007 13.3264 48.4099 14.2612 48.9583 14.5533C49.6285 14.9623 50.1768 14.9623 50.1768 14.9623C50.1768 14.9623 49.3848 14.5533 49.6285 13.7354C49.8722 13.0342 51.2735 12.9174 51.3344 13.2095V18.1174C50.5424 18.1174 48.2881 18.1758 47.1305 20.1624C46.4603 21.3309 46.5212 22.6748 47.1914 23.6096C47.8007 24.4276 49.0192 25.4209 51.0907 25.0703Z" fill="black"/>
<path d="M71.5622 15.0192L68.3939 17.0057V10.4618L71.5622 15.0192ZM71.4403 8.70898L68.1502 10.5202L65.2866 12.0394V19.6349L64.129 20.5113L64.3118 20.6866L65.4694 19.8102L68.8204 22.79L75.035 18.2327L74.9132 18.0574L71.4403 20.5698L68.6376 18.1158V17.181L74.3039 13.3248L71.4403 8.70898Z" fill="black"/>
<path d="M80.2105 22.9686L77.1642 20.6315L75.8237 21.508L75.7019 21.3327L77.0423 20.3978V13.7955C77.1032 11.1079 74.3615 11.7506 74.5443 8.88761C74.6052 7.6022 75.9456 6.66736 76.6158 6.37522C77.3469 6.02466 78.0781 6.02466 78.0781 6.02466C78.0781 6.02466 76.7986 6.72579 77.1032 7.77748C77.5906 9.41345 80.5152 9.53031 80.5761 11.6921V19.1708L82.4648 20.8068L83.0132 20.3978V12.2764L82.1602 11.1663L85.2066 8.6539L88.0092 10.9326L86.7298 11.9843V19.1708L89.5324 21.1574L90.0198 20.8652V12.2764L88.8622 11.2247L91.9086 8.6539L94.7722 10.8157L95.9298 9.88087L96.0516 10.0562L93.4927 12.1595V19.1708L86.9735 22.9102L83.6225 20.5147L80.2105 22.9686Z" fill="black"/>
<path d="M214.193 15.0189L210.964 17.0054V10.4616L214.193 15.0189ZM214.133 8.70874L210.842 10.52L207.857 12.0391V19.6347L206.578 20.5111L206.76 20.6864L207.918 19.81L211.513 22.7898L217.727 18.2324L217.605 18.0571L214.133 20.5695L211.269 18.1156V17.1807L216.935 13.3245L214.133 8.70874Z" fill="black"/>
<path d="M192.687 11.5716L193.357 11.0458L195.124 13.1492V19.4009L194.576 20.102L197.135 22.7313L199.877 20.2189L198.78 19.2256V11.63L199.572 11.0458L201.826 13.0907V19.3425L200.912 19.9268L203.776 22.7897L207.553 19.5762L207.371 19.4009L206.457 20.1605L204.873 18.7582V11.63L206.396 10.6368L206.274 10.4615L204.873 11.4548L202.314 8.7671L198.658 11.4548L196.038 8.88395L192.504 11.4548L189.884 8.88395L186.107 11.9222L186.229 12.0975L187.447 11.1626L189.153 12.9739V19.2841L188.3 19.9852L191.042 22.8481L193.845 20.2773L192.687 19.1672V11.5716ZM187.386 19.8099L187.265 19.6346L186.168 20.511L184.706 18.9335V11.8638L185.985 10.8705L185.802 10.6952L184.584 11.6885L181.964 8.82553L178.065 11.7469L178.552 11.8638L179.527 11.1042L181.111 12.7986V19.9852L180.014 20.8616L180.136 21.0369L181.294 20.102L183.792 22.7897L187.386 19.8099ZM182.147 3.4502L184.34 5.72887L181.598 8.00753L179.405 5.7873L182.147 3.4502Z" fill="black"/>
<path d="M167.213 17.1243V9.1197L164.654 10.1714C164.654 10.1714 163.984 11.5152 164.106 13.5018C164.167 15.0793 165.142 16.8906 165.873 17.7085L167.213 17.1243ZM174.525 0.647705C175.195 0.706133 176.17 0.99827 176.901 1.58255C177.693 2.28368 177.876 3.3938 177.632 4.38707C177.388 5.26348 177.083 5.7309 176.109 6.3736C175.134 7.0163 174.403 6.95788 174.403 6.95788V10.8141L176.231 12.3332L174.403 13.8523V19.0524C174.403 19.0524 175.926 18.0007 177.205 15.6052C177.205 15.6052 177.266 15.4883 177.388 15.1962C177.51 15.8389 177.449 17.1827 176.657 18.8187C176.048 20.1041 175.012 21.2726 173.611 21.9738C171.234 23.2007 169.407 23.3176 167.518 22.967C165.264 22.558 163.192 21.3895 161.852 19.3445C160.877 17.8838 160.45 16.2479 160.45 14.4366C160.511 10.8725 163.375 7.83429 166.665 6.66574C167.03 6.54888 167.213 6.43203 167.762 6.3736C167.518 6.54888 167.213 6.72417 166.848 6.95788C165.812 7.60058 164.898 8.88599 164.472 9.87925L170.747 7.36687V15.6052L165.751 17.8838C166.36 18.6434 168.127 19.7535 169.65 19.9288C172.209 20.2209 173.854 19.1692 173.854 19.1692V13.7939L172.027 12.2748L173.854 10.7557V6.89945C172.758 6.7826 171.356 6.43203 170.564 6.25675C169.407 6.02304 165.629 5.02977 165.02 4.91291C164.411 4.85449 163.679 4.85449 163.253 5.20505C162.826 5.55562 162.522 6.25675 162.705 6.84102C162.826 7.19159 163.07 7.36687 163.253 7.54215C163.253 7.54215 163.009 7.54215 162.644 7.30844C161.913 6.89945 161.364 6.13989 161.303 5.14663C161.268 4.53519 161.394 3.92509 161.671 3.37333C161.948 2.82157 162.367 2.34617 162.887 1.99154C163.862 1.40726 164.959 1.0567 166.238 1.23198C168.127 1.46569 170.625 2.45896 172.88 2.98481C173.732 3.16009 174.403 3.21852 175.012 2.92638C175.317 2.7511 175.804 2.22525 175.378 1.58255C174.89 0.822988 173.976 0.822988 173.184 0.706133C173.854 0.647705 174.037 0.647705 174.525 0.647705Z" fill="black"/>
<path d="M221.926 10.2314V14.0292L223.632 15.1393C223.632 15.1393 226.556 12.9191 227.653 10.9325C227.653 10.9325 226.312 12.6269 224.546 12.1011C223.022 11.6921 222.291 10.2898 222.291 10.2898L221.926 10.2314ZM218.94 20.2225C218.94 20.2225 220.22 18.236 222.474 18.645C224.607 19.0539 225.581 21.1573 225.581 21.1573V16.3663L223.814 15.1977C222.23 16.7168 219.306 18.8787 218.94 20.2225ZM221.073 23.845C220.646 23.9619 218.879 23.5529 218.453 21.8C218.026 20.1056 219.306 18.9955 221.195 17.1843L218.94 15.2562V11.6336C218.94 11.6336 220.585 10.8741 221.865 10.1145L224.485 8.53699C224.485 8.53699 225.46 9.64711 226.556 9.58869C228.262 9.47183 228.201 8.18642 228.14 7.89429C228.445 8.36171 229.237 9.8224 226.191 13.0359L228.628 14.8472V19.5798C228.628 19.5798 225.825 20.9236 223.083 22.7933C223.083 22.7933 221.56 21.0405 220.281 21.8585C219.428 22.5012 219.854 23.436 221.073 23.845Z" fill="black"/>
<path d="M122.617 18.4682L125.786 21.0974V13.0344L122.617 10.3467V18.4682ZM129.38 11.8659L130.477 10.931L130.66 11.1063L129.319 12.0411V19.5783L126.151 21.3311L123.227 22.9671L119.51 20.0457L118.535 20.8637L118.353 20.6884L119.632 19.8704V11.6906H119.449L122.678 10.1715L125.481 8.65234L129.38 11.8659Z" fill="black"/>
<path d="M136.751 11.1045L139.127 8.82584C139.127 8.82584 139.432 9.11798 139.737 9.23483C139.92 9.29326 140.651 9.64382 141.26 9.29326C141.625 9.11798 141.686 9.05955 142.052 8.70898C142.113 10.4618 141.199 11.6888 140.102 12.2146C139.615 12.4483 138.031 12.7989 136.569 11.2214V19.3428L138.335 20.5698L139.615 19.6349L139.737 19.8102L135.837 22.8484L132.852 20.3361L131.755 21.2709L131.572 21.0956L132.913 19.7518V12.7989L131.938 11.2798L130.841 12.1562L130.659 11.9809L134.436 8.82584L136.751 11.1045Z" fill="black"/>
<path d="M146.744 14.4952L151.131 8.59399C151.131 8.59399 151.74 9.2367 152.715 9.47041C154.056 9.82097 155.274 8.59399 155.274 8.59399C155.03 10.1715 154.177 11.9828 152.41 12.2749C150.826 12.5086 149.364 11.3985 149.364 11.3985L149.059 11.8075L155.152 20.3379L156.371 19.3447L156.554 19.5199L152.35 22.9087L146.744 14.4952Z" fill="black"/>
<path d="M143.333 6.54877C143.333 5.26337 142.541 4.50381 141.81 4.56224L146.38 1.46558V19.1107L147.842 20.3377L148.817 19.5781L149 19.7534L145.161 22.85L142.541 20.5714L141.506 21.4478L141.323 21.2725L143.394 19.8118V6.54877H143.333Z" fill="black"/>
<path d="M112.382 11.5139C112.382 11.5139 111.834 12.0981 111.042 12.0981C110.189 12.0981 109.823 11.5139 109.823 11.5139V13.9094C109.823 13.9094 110.189 13.3251 111.042 13.3251C111.895 13.3251 112.382 13.851 112.382 13.851V11.5139ZM112.26 6.37224L110.737 4.85313L109.823 5.49583V11.1633C109.823 11.1633 110.371 11.806 111.224 11.806C112.077 11.806 112.26 11.1633 112.26 11.1633V6.37224ZM109.823 22.3814C109.823 22.3814 110.92 22.6735 111.773 22.0308C112.687 21.3297 112.26 20.3948 112.26 20.3948V14.3184C112.26 14.3184 112.016 13.6757 111.224 13.6757C110.371 13.6757 109.823 14.3184 109.823 14.3184V22.3814ZM103.121 6.25539C103.121 5.08684 102.573 4.38571 101.781 4.38571C100.562 4.38571 100.257 5.96325 100.257 5.96325C100.257 5.96325 100.014 4.73627 101.171 3.62615C101.781 2.98345 102.938 2.10703 104.766 2.51602C106.655 2.92502 107.386 4.26885 107.386 5.49583V21.914C107.707 21.9888 108.033 22.0473 108.361 22.0892C108.909 22.2061 109.214 22.323 109.214 22.323V2.57445H109.823V5.26212L113.54 2.39917L116.342 4.73627L117.683 3.68458L117.805 3.85986L116.464 4.96998V20.2196C116.403 21.2128 116.22 22.2061 115.185 22.7904C112.93 24.0174 110.189 22.6151 107.752 22.2645C105.924 22.0308 103.121 21.6803 102.39 23.2578C102.146 23.7836 102.146 24.5432 102.999 25.069C104.644 26.0623 111.956 23.3746 114.454 24.4263C116.708 25.4196 116.708 26.9972 116.403 28.0489C115.794 30.0354 113.052 30.4444 113.052 30.4444C113.052 30.4444 114.393 29.7432 114.027 28.5163C113.844 27.932 113.418 27.7567 111.956 27.8736C108.848 28.2241 105.071 29.6264 102.573 28.6331C101.293 28.1073 100.379 26.6466 100.44 25.1275C100.501 23.0241 103.182 22.1477 103.182 22.1477V14.26C103.121 13.9678 101.72 14.0262 101.354 14.6105C100.867 15.4869 101.963 15.8959 101.963 15.8959C101.963 15.8959 101.11 16.0128 100.379 15.2532C100.014 14.9027 99.2827 13.5588 100.257 12.2734C101.05 11.2217 102.024 11.0464 103.243 10.9296L103.121 6.25539Z" fill="black"/>
</g>
<defs>
<clipPath id="clip0_602_3">
<rect width="229" height="31" fill="white"/>
</clipPath>
</defs>
</svg>
