<svg width="35" height="40" viewBox="0 0 35 40" fill="none" xmlns="http://www.w3.org/2000/svg">
<path d="M17.03 12.3799C12.828 12.3799 9.41 15.7979 9.41 19.9999C9.41 24.2029 12.828 27.6219 17.03 27.6219C21.233 27.6219 24.652 24.2029 24.652 20.0009C24.652 15.7979 21.232 12.3789 17.031 12.3789L17.03 12.3799ZM21.555 18.5649L16.095 24.0249C15.9863 24.1344 15.8569 24.2212 15.7145 24.2805C15.5721 24.3398 15.4193 24.3703 15.265 24.3703C15.1107 24.3703 14.958 24.3398 14.8155 24.2805C14.6731 24.2212 14.5437 24.1344 14.435 24.0249L12.35 21.9399C12.1299 21.7198 12.0062 21.4212 12.0062 21.1099C12.0062 20.7986 12.1299 20.5 12.35 20.2799C12.5701 20.0598 12.8687 19.9361 13.18 19.9361C13.4913 19.9361 13.7899 20.0598 14.01 20.2799L15.266 21.5369L19.896 16.9069C20.005 16.7979 20.1344 16.7114 20.2768 16.6525C20.4192 16.5935 20.5719 16.5631 20.726 16.5631C20.8801 16.5631 21.0328 16.5935 21.1752 16.6525C21.3176 16.7114 21.447 16.7979 21.556 16.9069C21.665 17.0159 21.7515 17.1453 21.8105 17.2877C21.8694 17.4301 21.8998 17.5828 21.8998 17.7369C21.8998 17.8911 21.8694 18.0437 21.8105 18.1861C21.7515 18.3285 21.665 18.4579 21.556 18.5669L21.555 18.5649Z" fill="black"/>
<path opacity="0.24" d="M34.022 10.8528V10.8218C34.004 10.4378 33.992 10.0318 33.985 9.57877C33.9649 8.51102 33.5426 7.49018 32.8025 6.72026C32.0625 5.95034 31.0591 5.48805 29.993 5.42577C25.394 5.16877 21.837 3.66977 18.797 0.705772L18.771 0.681772C18.2978 0.243488 17.6765 0 17.0315 0C16.3865 0 15.7652 0.243488 15.292 0.681772L15.266 0.706772C12.226 3.66977 8.669 5.16877 4.07 5.42677C3.00405 5.48903 2.00083 5.95118 1.26078 6.72089C0.520732 7.49061 0.0983412 8.5112 0.0779967 9.57877C0.0709967 10.0288 0.0589964 10.4348 0.0419964 10.8218L0.0399966 10.8938C-0.0500034 15.5838 -0.160004 21.4198 1.792 26.7178C2.866 29.6308 4.492 32.1628 6.624 34.2448C9.054 36.6148 12.235 38.4978 16.081 39.8388C16.3866 39.9444 16.7076 39.9988 17.031 39.9998C17.3552 39.9998 17.6771 39.945 17.983 39.8378C21.825 38.4948 25.003 36.6118 27.43 34.2408C29.562 32.1588 31.188 29.6258 32.263 26.7118C34.223 21.3988 34.111 15.5518 34.022 10.8528ZM17.031 29.9688C11.534 29.9688 7.062 25.4968 7.062 20.0008C7.062 14.5038 11.534 10.0318 17.031 10.0318C22.527 10.0318 26.999 14.5038 26.999 20.0008C26.999 25.4968 22.527 29.9688 17.031 29.9688Z" fill="black"/>
</svg>
